# xmcd
#
# Track frame offsets: 
#        150
#        19287
#        35710
#        60222
#        82165
#        95240
#        116697
#        130347
#        155467
#        170822
#        187397
#        195952
#        210537
#        224695
#        243627
#        263962
#        277090
#        304817
#        316605
#
# Disc length: 4416 seconds
#
# Revision: 4
# Processed by: cddbd v1.5.2PL0 Copyright (c) Steve Scherf et al.
# Submitted via: ExactAudioCopy v1.0b1
#
DISCID=28113e13
DTITLE=Various Artist - The Alligator Records 25th Anniversary Collection (Di
DTITLE=sc 1 of 2)
DYEAR=1996
DGENRE=Blues
TTITLE0=Son Seals - Don't Pick Me for Your Fool
TTITLE1=James Cotton - Digging My Potatoes
TTITLE2=Albert Collins with Johnny Copeland - Something to Remember Yo
TTITLE2=u By
TTITLE3=William Clarke - The Complainer's Boogie Woogie
TTITLE4=Charlie Musselwhite - Stingaree
TTITLE5=Lil' Ed and the Blues Imperials - It's Alright
TTITLE6=C.J. Chenier and the Red Hot Louisiana Band - Man Smart, Woman S
TTITLE6=marter
TTITLE7=Maurice John Vaughn - I Want to Be Your Spy
TTITLE8=Floyd Dixon - Hey Bartender
TTITLE9=Eddie Shaw and the Wolf Gang - Sitting on Top of the World
TTITLE10=Cephas and Wiggins - Action Man
TTITLE11=Kenny Neal - Bayou Blood
TTITLE12=Long John Hunter - T-Bone Intentions
TTITLE13=Saffire - The Uppity Blues Women - T'aint Nobody's Business
TTITLE14=Lonnie Mack With Stevie Ray Vaughn - If You Have to Know
TTITLE15=Billy Boy Arnold - Been Gone Too Long
TTITLE16=Tinsley Ellis - A Quitter Never Wins
TTITLE17=Sugar Blue - I Ain't Got You
TTITLE18=Professor Longhair - Crawfish Fiesta
EXTD=
EXTT0=
EXTT1=
EXTT2=
EXTT3=
EXTT4=
EXTT5=
EXTT6=
EXTT7=
EXTT8=
EXTT9=
EXTT10=
EXTT11=
EXTT12=
EXTT13=
EXTT14=
EXTT15=
EXTT16=
EXTT17=
EXTT18=
PLAYORDER=
